<?xml version="1.0" encoding="UTF-8"?>
<svg fill="none" version="1.1" viewBox="0 0 170 124" xmlns="http://www.w3.org/2000/svg">
<g transform="translate(-34.015 -49.91)">
<path d="m142.38 114.09 6.3539 27.557c0.35696 1.5706 1.7134 2.6415 3.3554 2.6415h35.982c1.5706 0 2.9984-1.0709 3.3554-2.6415l6.3538-27.557zm11.994 25.558h-0.3569c-0.9281 0-1.7134-0.6426-1.8562-1.5707l-2.356-13.207c-0.21418-0.9995 0.49973-1.999 1.4992-2.2132 0.99953-0.21417 1.9989 0.49973 2.2131 1.4992l2.356 13.208c0.2141 1.0709-0.4284 2.0704-1.4993 2.2846zm7.8531 0h-0.1428c-0.9994 0-1.7848-0.7853-1.8562-1.7848l-0.9281-13.208c-0.0713-1.0709 0.714-1.9276 1.7135-1.999 1.0708-0.0714 1.9275 0.71392 1.9989 1.7134l0.9281 13.208c0.0714 1.0709-0.7139 1.999-1.7134 2.0704zm9.7807-1.8562c0 1.0709-0.8567 1.8562-1.8562 1.8562-1.0709 0-1.8562-0.8567-1.8562-1.8562v-13.208c0-1.0709 0.8567-1.8562 1.8562-1.8562 1.0709 0 1.8562 0.8567 1.8562 1.8562zm7.9959 0.1428c-0.0714 0.9995-0.9281 1.7848-1.8562 1.7848h-0.1428c-1.0709-0.0714-1.8562-0.9995-1.7134-1.999l0.9281-13.208c0.0714-1.0709 0.9995-1.7848 1.999-1.7134 1.0708 0.0714 1.8562 0.99951 1.7134 1.999zm10.352-13.065-2.3559 13.207c-0.1428 0.9281-0.9281 1.5707-1.8562 1.5707h-0.357c-0.9995-0.2142-1.7134-1.1423-1.4992-2.2132l2.3559-13.208c0.2142-0.99946 1.1423-1.7134 2.2132-1.4992 0.9994 0.14278 1.642 1.1423 1.4992 2.1418z" fill="#ff2d87"/>
<path d="m196.14 120.57h-52.259c-2.4987 0-4.5691-2.0704-4.5691-4.5691 0-2.4987 2.0704-4.5691 4.5691-4.5691h52.259c2.4987 0 4.5691 2.0704 4.5691 4.5691 0 2.4987-1.999 4.5691-4.5691 4.5691z" fill="#ff7cb4"/>
<path d="m170.3 119.82c2.0897 0 3.7838-1.694 3.7838-3.7838 0-2.0897-1.694-3.7838-3.7838-3.7838-2.0897 0-3.7838 1.6941-3.7838 3.7838 0 2.0897 1.694 3.7838 3.7838 3.7838z" fill="#ff2d87"/>
<path d="m170.29 116.06-5.4258-25.059" stroke="#ff7cb4" stroke-linecap="round" stroke-miterlimit="10" stroke-width="6.6048"/>
</g>
<g transform="translate(-33.159 -7.6328)">
<path d="m55.612 11.964c6.9874-3.0099 15.17 0.10218 18.296 7.1088l0.0029 0.0066 6.4695 14.788c0.4383 1.0018-0.0185 2.1692-1.0203 2.6075s-2.1693-0.0185-2.6076-1.0203l-6.4636-14.774c-2.2324-4.9946-8.0813-7.2382-13.099-5.0842-4.9931 2.2352-7.234 8.086-5.0759 13.103l6.4643 14.776c0.4383 1.0018-0.0185 2.1692-1.0204 2.6075-1.0018 0.4383-2.1692-0.0185-2.6075-1.0203l-6.4711-14.791c-3.0099-6.9874 0.1022-15.17 7.1088-18.296l0.01166-0.0052z" clip-rule="evenodd" fill="#ff7cb4" fill-rule="evenodd"/>
<path d="m131.49 101.66-59.955 26.328-26.328-65.683 55.521-24.481z" fill="#ff7cb4"/>
<path d="m90.944 101.29c0.36952 0.83142-1e-5 1.8476-0.83143 2.2171-0.83143 0.36952-1.8476-1e-5 -2.2171-0.83143-0.36952-0.83143-2e-6 -1.8476 0.83142-2.2171 0.83142-0.4619 1.8476-0.0924 2.2171 0.83143z" fill="#fff"/>
<path d="m99.744 97.503c0.36952 0.83142-1e-5 1.8476-0.83143 2.2171-0.83143 0.36952-1.8476-1e-5 -2.2171-0.83143-0.36952-0.83143-2e-6 -1.8476 0.83142-2.2171 0.83142-0.4619 1.8476-0.09238 2.2171 0.83143z" fill="#fff"/>
<path d="m98.844 93.54-14.319 6.3743c-0.36952 0.1848-0.92381 0-1.1086-0.4619-0.18476-0.3695 0-0.9238 0.4619-1.1086l14.319-6.3742c0.6466-0.2772 1.1085-1.0162 1.0161-1.7553l-1.5704-13.303c-0.1848-1.2933 0.5543-2.4943 1.7552-3.0486l3.4181-1.4781c0.3695-0.18476 0.9238 0 1.1086 0.4619 0.1847 0.36953 0 0.92381-0.4619 1.1086l-3.4181 1.4781c-0.5543 0.27715-0.8314 0.73905-0.7391 1.3857l1.4781 13.303c0.1848 1.4781-0.5543 2.7715-1.94 3.4181z" fill="#fff"/>
<path d="m96.569 90.94-12.656 5.6352c-0.64663 0.2771-1.2933 0.0924-1.7552-0.3695l-7.2057-7.9448c-0.73905-0.8314-0.46191-2.0323 0.55428-2.4942l18.568-8.2219c0.9238-0.4619 2.0324 0.18476 2.2171 1.2009l1.2934 10.624c0 0.6467-0.3695 1.2933-1.0162 1.5705z" fill="#fff"/>
<path d="m92.413 20.823-54.135 23.834 6.9286 17.645 55.521-24.481z" fill="#ff2d87"/>
<path d="m64.241 30.159c6.9874-3.0099 15.17 0.10217 18.296 7.1088l0.0029 0.0065 6.4695 14.787-3.6279 1.5872-6.4636-14.774c-2.2324-4.9946-8.0813-7.2382-13.099-5.0843-4.9931 2.2352-7.234 8.0861-5.0759 13.103 7e-4 0.0016 0.0014 0.0033 0.0021 0.0049l6.4622 14.771-3.6279 1.5872-6.4711-14.791c-3.0099-6.9873 0.1022-15.17 7.1088-18.296l0.01166-0.0052z" clip-rule="evenodd" fill="#fff" fill-rule="evenodd"/>
<path d="m38.278 44.658 18.568 3.6028-11.64 14.042z" fill="#ff7cb4"/>
<path d="m92.413 20.823-9.9771 16.074 18.291 0.9238z" fill="#ff7cb4"/>
</g>
<g transform="translate(-76.738 3.3864)">
<path d="m194.15 5.6981-17.5-3.8-35.7 35.7 21.2 21.2 35.7-35.7zm-7.7 7.7c-2.4-2.4 1.3-6 3.7-3.7 2.3 2.4-1.4 6.1-3.7 3.7z" fill="#f0f4fb"/>
<path d="m171.67 33.476-19.376 5.7126 0.76356 2.5898 19.376-5.7126z" fill="#2967ff"/>
<path d="m159.59 32.482c-1.7-1.7-1.6-4.6 0.3-6.5 1.9-1.9 4.8-2 6.5-0.3 1.7 1.7 1.6 4.6-0.3 6.5-1.9 1.9-4.8 2-6.5 0.3zm4.8-4.8c-0.7-0.7-1.8-0.5-2.6 0.3s-0.9 2-0.3 2.6c0.7 0.7 1.8 0.5 2.6-0.3 0.9-0.8 1-1.9 0.3-2.6z" fill="#2967ff"/>
<path d="m158.95 49.433c-1.7-1.7-1.6-4.6 0.3-6.5 1.9-1.9 4.8-2 6.5-0.3 1.7 1.7 1.6 4.6-0.3 6.5-1.9 1.9-4.8 2-6.5 0.3zm4.8-4.8c-0.7-0.7-1.8-0.5-2.6 0.3s-0.9 2-0.3 2.6c0.7 0.7 1.8 0.5 2.6-0.3 0.9-0.8 1-1.9 0.3-2.6z" fill="#2967ff"/>
</g>
</svg>
