<?xml version="1.0" encoding="UTF-8"?>
<svg fill="none" version="1.1" viewBox="0 0 14 15" xmlns="http://www.w3.org/2000/svg">
<g transform="translate(-2.65 -3)" stroke="#aec2ea" stroke-linecap="round" stroke-linejoin="round">
<path d="m3.15 6.3h13"/>
<g transform="translate(-.29487 -.68097)">
<path d="m6.9941 6.981v-1.4c0-0.3713 0.15447-0.7274 0.42943-0.98995s0.64788-0.41005 1.0367-0.41005h2.9323c0.38886 0 0.76178 0.1475 1.0367 0.41005s0.42943 0.61865 0.42943 0.98995v1.4m2.1993 0v9.8c0 0.3713-0.1545 0.7274-0.4295 0.9899-0.2749 0.2626-0.6478 0.4101-1.0367 0.4101h-7.3308c-0.38886 0-0.76178-0.1475-1.0367-0.4101-0.27496-0.2625-0.42943-0.6186-0.42943-0.9899v-9.8z"/>
<path d="m8.25 10v4.6667"/>
<path d="m11.75 10v4.6667"/>
</g>
</g>
</svg>
