<?xml version="1.0" encoding="UTF-8"?>
<svg version="1.1" viewBox="0 0 89 79" xmlns="http://www.w3.org/2000/svg">
<path d="m88.591 78.45h-53.091l7.28-59.555h38.442z" fill="#ff2d87"/>
<path d="m85.591 78.45h-53.091l7.28-59.555h38.531z" fill="#ff7cb4"/>
<path d="m50.198 78.45h-46.698l6.3922-52.312h33.914z" fill="#fff"/>
<path d="m50.199 78.45-6.3922-52.312h-33.914l-6.3922 52.312zm-1.0037-0.8942-6.1737-50.523h-32.344l-6.1737 50.523z" clip-rule="evenodd" fill="#2967ff" fill-rule="evenodd"/>
<path d="m47.198 78.45h-46.698l6.3922-52.312h33.914z" fill="#fff"/>
<path d="m47.199 78.45-6.3922-52.312h-33.914l-6.3922 52.312zm-1.0037-0.8942-6.1737-50.523h-32.344l-6.1737 50.523z" clip-rule="evenodd" fill="#2967ff" fill-rule="evenodd"/>
<path d="m12.5 55.604v-7.1538h4.9867v1.7129h-2.99v1.1889h2.437v1.592h-2.437v2.66z" fill="#2967ff"/>
<path d="m18.27 55.604v-7.1538h3.3382c0.35502 0 0.68262 0.07389 0.98302 0.22167 0.3004 0.14106 0.5563 0.32914 0.768 0.56424 0.2184 0.22839 0.3891 0.49371 0.5119 0.79599 0.1229 0.29555 0.1844 0.59446 0.1844 0.89674 0 0.41646-0.0922 0.80605-0.2765 1.1688-0.1843 0.35601-0.4403 0.6482-0.768 0.87659l1.536 2.6298h-2.2528l-1.2799-2.1965h-0.7475v2.1965zm1.9967-3.9094h1.2595c0.12287 0 0.23551-0.06717 0.33791-0.20151 0.10923-0.13435 0.16383-0.32243 0.16383-0.56424 0-0.24854-0.0614-0.43662-0.18431-0.56424-0.12288-0.13435-0.24575-0.20152-0.36863-0.20152h-1.2083z" fill="#2967ff"/>
<path d="m30.361 53.891v1.7129h-5.1813v-7.1538h5.0892v1.7129h-3.0924v1.0076h2.6418v1.592h-2.6418v1.1285z" fill="#2967ff"/>
<path d="m36.471 53.891v1.7129h-5.1813v-7.1538h5.0892v1.7129h-3.0924v1.0076h2.6418v1.592h-2.6418v1.1285z" fill="#2967ff"/>
<path d="m49.5 43.547c0-3.2192 2.1307-5.0971 4.8829-5.0971 2.7522 0 4.7941 1.8779 4.7941 5.1865 0 3.3086-2.1307 5.097-4.8829 5.097-2.7522 0-4.7942-1.8779-4.7942-5.1865zm15.625-4.6499 4.4391 0.08942-12.696 18.153-4.439-0.0894zm-9.5882 4.7394c0-1.7884-0.53269-2.325-1.1542-2.325-0.53269 0-1.1542 0.53653-1.1542 2.2356 0 1.7884 0.53268 2.325 1.1542 2.325 0.53268 0.08942 1.1542-0.44711 1.1542-2.2356zm7.28 8.7634c0-3.2192 2.1308-5.097 4.883-5.097s4.7941 1.8778 4.7941 5.1864-2.1307 5.0971-4.8829 5.0971-4.8829-1.9673-4.7942-5.1865zm5.9483 0c0-1.7884-0.5326-2.325-1.1541-2.325-0.5327 0-1.1542 0.5366-1.1542 2.2356 0 1.7884 0.5327 2.325 1.1542 2.325 0.5327 0.0894 1.1541-0.4471 1.1541-2.2356z" fill="#ff2d87"/>
<path d="m16.121 30.627c-0.35512 0-0.62146-0.3577-0.62146-0.7154 0.08878-1.6096 0.35512-5.9019 1.2429-10.194 1.5093-7.5115 4.1727-11.267 7.7239-11.267 3.5512 0 6.1258 3.8451 7.5463 11.267 0.799 4.2922 0.9766 8.5845 1.0654 10.194 0 0.3577-0.2664 0.7154-0.6215 0.7154s-0.6215-0.2683-0.7102-0.626c-0.1776-6.1701-1.6869-20.209-7.1913-20.209-5.5932 0-7.3688 14.039-7.6351 20.209-0.17756 0.3577-0.4439 0.626-0.79902 0.626z" fill="#2d2d2f"/>
<path d="m52.951 22.238c0 0.98364-0.79902 1.7884-1.7756 1.7884-0.97658 0-1.7756-0.8048-1.7756-1.7884s0.79903-1.7884 1.7756-1.7884c0.97659 0 1.7756 0.8048 1.7756 1.7884z" fill="#2967ff"/>
<path d="m69.251 22.238c0 0.98364-0.79902 1.7884-1.7756 1.7884-0.97658 0-1.7756-0.8048-1.7756-1.7884s0.79903-1.7884 1.7756-1.7884c0.97659 0 1.7756 0.8048 1.7756 1.7884z" fill="#2967ff"/>
<path d="m51.121 22.877c-0.35512 0-0.62146-0.3577-0.62146-0.7154 0.08878-1.6096 0.35512-5.9019 1.2429-10.194 1.5093-7.5115 4.1727-11.267 7.7239-11.267 3.5512 0 6.1258 3.8451 7.5463 11.267 0.799 4.2922 0.9766 8.5845 1.0654 10.194 0 0.3577-0.2664 0.7154-0.6215 0.7154s-0.6215-0.2683-0.7102-0.626c-0.1776-6.1701-1.6869-20.209-7.1913-20.209-5.5932 0-7.3688 14.039-7.6351 20.209-0.17756 0.3577-0.4439 0.626-0.79902 0.626z" fill="#2d2d2f"/>
</svg>
