<?xml version="1.0" encoding="UTF-8"?>
<svg fill="none" version="1.1" viewBox="0 0 20 17" xmlns="http://www.w3.org/2000/svg">
<path d="m1 1h3.2258l2.1613 10.798c0.07374 0.3713 0.27573 0.7048 0.5706 0.9422 0.29487 0.2373 0.66383 0.3634 1.0423 0.3562h7.8387c0.3785 0.0072 0.7474-0.1189 1.0423-0.3562 0.2949-0.2374 0.4969-0.5709 0.5706-0.9422l1.2903-6.7661h-13.71" stroke="#727280" strokeLinecap="round" strokeLinejoin="round"/>
<path d="m8.3064 16.113c0.4454 0 0.80646-0.36106 0.80646-0.80646 0-0.44539-0.36106-0.80645-0.80646-0.80645-0.44539 0-0.80645 0.36106-0.80645 0.80645 0 0.4454 0.36106 0.80646 0.80645 0.80646z" stroke="#727280" strokeLinecap="round" strokeLinejoin="round"/>
<path d="m15.306 16.113c0.4454 0 0.80646-0.36106 0.80646-0.80646 0-0.44539-0.36106-0.80645-0.80646-0.80645-0.44539 0-0.80645 0.36106-0.80645 0.80645 0 0.4454 0.36106 0.80646 0.80645 0.80646z" stroke="#727280" strokeLinecap="round" strokeLinejoin="round"/>
</svg>
